<svg width="49" height="63" viewBox="0 0 49 63" fill="none" xmlns="http://www.w3.org/2000/svg">
<path d="M21.7487 1.44338C23.2957 0.550212 25.2017 0.550212 26.7487 1.44338L45.9974 12.5566C47.5444 13.4498 48.4974 15.1004 48.4974 16.8868V39.7157C48.4974 41.1665 47.8673 42.5457 46.7707 43.4954L27.522 60.1653C25.6431 61.7924 22.8543 61.7924 20.9754 60.1653L1.72673 43.4954C0.630089 42.5457 0 41.1665 0 39.7157V16.8868C0 15.1004 0.952995 13.4498 2.5 12.5566L21.7487 1.44338Z" fill="#564F87"/>
<circle cx="24.2488" cy="28" r="20" fill="white"/>
<g clip-path="url(#clip0_148_5455)">
<path d="M23.7291 27.973C25.774 27.973 27.2579 26.965 28.0205 25.0581C28.6057 23.5946 28.6846 21.8682 28.6846 20.3724C28.6846 17.6384 26.8321 16.0062 23.7291 16.0062C20.6261 16.0062 18.7736 17.6384 18.7736 20.3724C18.7736 21.8682 18.8525 23.5946 19.4377 25.0581C20.2002 26.965 21.6842 27.973 23.7291 27.973Z" fill="#564F87"/>
<path d="M25.5681 29.2647H21.8615C18.312 29.2647 15.4244 32.1524 15.4244 35.7017V36.1416C15.4244 38.2657 17.1524 39.9937 19.2765 39.9937H28.1531C30.2772 39.9937 32.0052 38.2657 32.0052 36.1416V35.7017C32.0052 32.1523 29.1176 29.2647 25.5681 29.2647Z" fill="#564F87"/>
<path d="M30.1846 20.3724C30.1846 22.8666 29.936 25.6011 28.2799 27.5082C28.6929 27.6703 29.1558 27.7533 29.665 27.7533C31.214 27.7533 32.3379 26.99 32.9153 25.5459C33.3448 24.472 33.4026 23.2198 33.4026 22.1364C33.4026 20.236 32.1963 18.947 30.011 18.8272C30.1258 19.3128 30.1846 19.8293 30.1846 20.3724Z" fill="#564F87"/>
<path d="M17.8787 27.7533C18.3616 27.7533 18.8031 27.6791 19.1997 27.5332C17.5222 25.6236 17.2736 22.8639 17.2736 20.3724C17.2736 19.8313 17.3319 19.3167 17.4459 18.8326C15.431 18.9731 14.141 20.1536 14.141 22.1364C14.141 23.2197 14.1989 24.4719 14.6283 25.5459C15.2058 26.99 16.3297 27.7533 17.8787 27.7533Z" fill="#564F87"/>
<path d="M13.9245 35.7017C13.9245 32.8105 15.4785 30.2758 17.795 28.8882H16.5519C13.9106 28.8882 11.7617 31.0371 11.7617 33.6784V33.9909C11.7617 35.3627 12.7017 36.5189 13.9714 36.8496C13.9157 36.4301 13.9245 36.174 13.9245 35.7017Z" fill="#564F87"/>
<path d="M30.9716 28.8882H29.6354C31.9516 30.2759 33.5052 32.8108 33.5052 35.7017C33.5052 36.1695 33.5147 36.438 33.4551 36.8724C34.7735 36.5764 35.7618 35.3973 35.7618 33.9909V33.6784C35.7618 31.0371 33.6129 28.8882 30.9716 28.8882Z" fill="#564F87"/>
</g>
<defs>
<clipPath id="clip0_148_5455">
<rect width="24" height="24" fill="white" transform="translate(11.7617 16)"/>
</clipPath>
</defs>
</svg>
