<svg width="49" height="63" viewBox="0 0 49 63" fill="none" xmlns="http://www.w3.org/2000/svg">
<path d="M21.7487 1.44338C23.2957 0.550212 25.2017 0.550212 26.7487 1.44338L45.9974 12.5566C47.5444 13.4498 48.4974 15.1004 48.4974 16.8868V39.7157C48.4974 41.1665 47.8673 42.5457 46.7707 43.4954L27.522 60.1653C25.6431 61.7924 22.8543 61.7924 20.9754 60.1653L1.72673 43.4954C0.630089 42.5457 0 41.1665 0 39.7157V16.8868C0 15.1004 0.952995 13.4498 2.5 12.5566L21.7487 1.44338Z" fill="#0055BB"/>
<circle cx="24.2488" cy="28" r="20" fill="white"/>
<path d="M29.7532 30.8003C31.0258 28.4006 32.0517 25.8779 32.815 23.2711L32.0621 23.1908C31.3151 25.7061 30.3197 28.1408 29.0906 30.4589C28.8396 30.9308 28.5836 31.3926 28.3226 31.8443C28.6891 31.7238 29.0454 31.5984 29.3968 31.4729C29.5172 31.252 29.6377 31.0312 29.7532 30.8103" fill="#0055BB"/>
<path d="M20.2162 25.7555C20.3718 25.4494 20.5374 25.1532 20.7181 24.8571C20.3617 24.9675 20.0154 25.0779 19.6791 25.1984C19.6389 25.2636 19.6038 25.3339 19.5687 25.4042C18.1823 27.9674 17.1024 30.6849 16.3512 33.5005C16.5971 33.5005 16.8531 33.5407 17.1091 33.5507C17.8499 30.842 18.8974 28.2267 20.2312 25.7555" fill="#0055BB"/>
<path d="M18.7557 29.3246L18.4294 30.1126C19.6223 31.1647 20.955 32.0464 22.3898 32.7328C23.8851 33.4749 25.4818 33.9924 27.1281 34.2687C27.2837 34.0378 27.4393 33.7969 27.5949 33.551C24.2945 33.0502 21.2176 31.5791 18.7557 29.3246Z" fill="#0055BB"/>
<path d="M32.4082 27.7484C30.9269 25.9205 29.0468 24.4559 26.912 23.4668C24.8629 22.4238 22.6094 21.8446 20.3114 21.7703C18.0878 21.7703 16.5067 22.4981 15.8642 23.8132C15.0711 25.4445 15.9043 27.5928 17.8469 29.5604C17.9573 29.2894 18.0677 29.0234 18.1832 28.7523C16.6773 27.1059 15.9696 25.3842 16.5669 24.1595C17.0688 23.1556 18.4291 22.5533 20.3114 22.5533C22.4915 22.6236 24.629 23.1756 26.5707 24.1696C28.595 25.1047 30.3788 26.4902 31.7858 28.2202C32.8901 29.6809 33.2314 31.0412 32.7395 32.0451C32.2476 33.0489 30.8773 33.6513 28.99 33.6513C28.8093 33.6513 28.6236 33.6513 28.4379 33.6513C28.2823 33.9022 28.1267 34.1532 27.9661 34.3941C28.3174 34.4293 28.6587 34.4493 28.9699 34.4493C31.1986 34.4493 32.7747 33.7266 33.4172 32.4065C34.0596 31.0863 33.6782 29.4801 32.3882 27.7685" fill="#0055BB"/>
<path d="M27.7204 32.8378C24.6184 37.8824 20.8739 41.4361 18.5248 41.4361C18.2367 41.441 17.952 41.3737 17.6966 41.2404C16.4166 40.5627 16.0803 37.9677 16.9085 34.3085C16.6475 34.3085 16.4066 34.2784 16.1506 34.2533C15.3023 38.0932 15.6487 41.0095 17.3452 41.908C17.71 42.0949 18.1149 42.1897 18.5248 42.184C21.3206 42.184 25.4165 38.2739 28.8096 32.4764C28.4532 32.5969 28.0918 32.7124 27.7204 32.8228" fill="#0055BB"/>
<path d="M25.6223 32.3612C25.015 32.5018 24.4076 32.6273 23.8053 32.7327C24.3072 32.9284 24.774 33.0991 25.2559 33.2346L25.803 33.1192C28.2048 32.5809 30.5384 31.7744 32.76 30.7149C32.7123 30.4537 32.6383 30.1981 32.5391 29.9519C30.3343 31.0195 28.0133 31.8281 25.6223 32.3612Z" fill="#0055BB"/>
<path d="M16.2357 25.6353C16.2689 25.8985 16.3295 26.1576 16.4164 26.4083C18.7182 25.2582 21.1524 24.3951 23.6645 23.8383L24.7286 23.6125C24.2267 23.4267 23.7247 23.2711 23.2228 23.1406C20.8005 23.7012 18.4521 24.5436 16.2257 25.6503" fill="#0055BB"/>
<path d="M22.3847 32.9586C21.104 33.1374 19.8129 33.2313 18.5198 33.2397C14.8556 33.2397 12.381 32.3864 12.0648 31.0161C11.7937 29.8515 13.1339 28.2654 15.7139 26.7897C15.6234 26.5414 15.5529 26.2863 15.5031 26.0267C12.5767 27.6631 10.9254 29.5403 11.3018 31.1917C11.7184 32.9887 14.3486 34.0227 18.5198 34.0227C20.2693 34.0037 22.0139 33.8358 23.735 33.5208C23.2832 33.3451 22.8365 33.1543 22.3847 32.9385" fill="#0055BB"/>
<path d="M38.0051 25.0078C37.5885 23.2109 34.9583 22.1819 30.7871 22.1819C28.7642 22.1984 26.7474 22.4068 24.7638 22.8043C25.2256 22.9699 25.6874 23.1506 26.1441 23.3514C27.6727 23.1026 29.2184 22.9734 30.767 22.9649C34.4312 22.9649 36.9058 23.8132 37.222 25.1885C37.468 26.2376 36.4189 27.6029 34.3559 28.933C34.0012 29.1606 33.6248 29.3814 33.2266 29.5956C33.3296 29.8392 33.4119 30.0911 33.4725 30.3485C33.9343 30.1026 34.371 29.8466 34.7776 29.5906C37.1718 28.0496 38.2912 26.4233 37.985 25.0078" fill="#0055BB"/>
<path d="M26.6259 28.1698C26.6269 28.5979 26.5009 29.0167 26.2638 29.3731C26.0267 29.7295 25.6892 30.0076 25.2939 30.1721C24.8987 30.3366 24.4636 30.3802 24.0436 30.2973C23.6236 30.2144 23.2377 30.0087 22.9346 29.7064C22.6316 29.404 22.425 29.0186 22.3411 28.5988C22.2573 28.179 22.2998 27.7437 22.4634 27.3481C22.627 26.9525 22.9043 26.6144 23.2601 26.3764C23.616 26.1385 24.0345 26.0115 24.4626 26.0115C25.0355 26.0115 25.585 26.2387 25.9905 26.6433C26.3961 27.048 26.6246 27.5969 26.6259 28.1698Z" fill="#0055BB"/>
<path d="M21.27 23.8683C21.5461 23.4065 21.8272 22.9497 22.1183 22.513C21.8372 22.4678 21.5561 22.4277 21.2851 22.4026C20.9237 22.9748 20.5623 23.5721 20.2159 24.1845C20.5573 24.0741 20.9136 23.9687 21.27 23.8683Z" fill="#0055BB"/>
<path d="M22.6104 21.8104C25.4916 17.6041 28.699 14.753 30.8022 14.753C31.0896 14.7489 31.3737 14.8143 31.6304 14.9438C32.9906 15.6666 33.2868 18.5628 32.2428 22.5984C32.5038 22.5984 32.7447 22.6436 32.9957 22.6787C34.0598 18.4724 33.7837 15.2349 31.9918 14.2812C31.6275 14.0925 31.2225 13.996 30.8122 14.0001C28.3527 14.0001 24.8993 17.0118 21.7772 21.6799C22.0533 21.715 22.3294 21.7602 22.6054 21.8104" fill="#0055BB"/>
</svg>
