<svg width="50" height="63" viewBox="0 0 50 63" fill="none" xmlns="http://www.w3.org/2000/svg">
<path d="M22.5053 1.44338C24.0523 0.550212 25.9583 0.550212 27.5053 1.44338L46.754 12.5566C48.301 13.4498 49.254 15.1004 49.254 16.8868V39.7157C49.254 41.1665 48.6239 42.5457 47.5273 43.4954L28.2786 60.1653C26.3997 61.7924 23.6109 61.7924 21.732 60.1653L2.48332 43.4954C1.38668 42.5457 0.756592 41.1665 0.756592 39.7157V16.8868C0.756592 15.1004 1.70959 13.4498 3.25659 12.5566L22.5053 1.44338Z" fill="#61C9C4"/>
<circle cx="24.7566" cy="28" r="20" fill="white"/>
<g clip-path="url(#clip0_148_5454)">
<path d="M34.6924 35.7556L29.1368 24.8112V18.7778H30.4257C30.632 18.7778 30.8298 18.6959 30.9757 18.55C31.1216 18.4042 31.2035 18.2063 31.2035 18.0001C31.2035 17.7938 31.1216 17.596 30.9757 17.4501C30.8298 17.3042 30.632 17.2223 30.4257 17.2223H20.0924C19.8861 17.2223 19.6883 17.3042 19.5424 17.4501C19.3966 17.596 19.3146 17.7938 19.3146 18.0001C19.3146 18.2063 19.3966 18.4042 19.5424 18.55C19.6883 18.6959 19.8861 18.7778 20.0924 18.7778H21.3813V24.8112L15.8479 35.7223C15.6174 36.0908 15.4898 36.5143 15.4785 36.9488C15.4671 37.3833 15.5724 37.8129 15.7834 38.1929C15.9944 38.573 16.3034 38.8895 16.6782 39.1096C17.053 39.3297 17.48 39.4454 17.9146 39.4445H32.6035C33.0349 39.4453 33.4587 39.3314 33.8315 39.1145C34.2044 38.8977 34.5129 38.5856 34.7254 38.2102C34.938 37.8349 35.0469 37.4098 35.0411 36.9784C35.0353 36.5471 34.915 36.1251 34.6924 35.7556ZM24.8579 31.3623C24.9587 31.5591 25.0073 31.7785 24.999 31.9994C24.9908 32.2204 24.926 32.4355 24.8108 32.6242C24.6956 32.813 24.534 32.969 24.3413 33.0774C24.1486 33.1858 23.9313 33.243 23.7102 33.2434C23.4805 33.2438 23.2548 33.183 23.0564 33.0673C22.858 32.9515 22.6941 32.7849 22.5815 32.5847C22.4688 32.3845 22.4116 32.158 22.4157 31.9283C22.4198 31.6986 22.485 31.4742 22.6046 31.2781C22.7243 31.082 22.894 30.9214 23.0964 30.8127C23.2987 30.7041 23.5264 30.6513 23.7559 30.6599C23.9855 30.6684 24.2086 30.738 24.4023 30.8615C24.596 30.985 24.7533 31.1578 24.8579 31.3623ZM19.3791 34.6545C19.4714 34.3708 19.6592 34.1278 19.9105 33.967C20.1618 33.8061 20.4612 33.7374 20.7575 33.7725C21.0538 33.8076 21.3288 33.9443 21.5356 34.1594C21.7424 34.3745 21.8683 34.6546 21.8918 34.9521C21.9153 35.2495 21.8349 35.5459 21.6644 35.7908C21.4938 36.0356 21.2437 36.2138 20.9566 36.2949C20.6694 36.3761 20.363 36.3552 20.0896 36.2358C19.8161 36.1163 19.5925 35.9058 19.4568 35.6401C19.3794 35.4891 19.3326 35.3243 19.3192 35.1551C19.3059 34.9859 19.3262 34.8158 19.3791 34.6545ZM29.3935 36.3434C29.0357 36.3434 28.686 36.2373 28.3885 36.0385C28.0911 35.8398 27.8592 35.5573 27.7223 35.2267C27.5854 34.8962 27.5496 34.5325 27.6194 34.1816C27.6892 33.8307 27.8614 33.5084 28.1144 33.2554C28.3674 33.0025 28.6897 32.8302 29.0406 32.7604C29.3915 32.6906 29.7552 32.7264 30.0857 32.8633C30.4163 33.0002 30.6988 33.2321 30.8975 33.5295C31.0963 33.827 31.2024 34.1767 31.2024 34.5345C31.2021 35.0142 31.0114 35.4741 30.6723 35.8133C30.3331 36.1524 29.8732 36.3431 29.3935 36.3434ZM22.9368 18.7778H27.5813V22.7334C26.7257 23.2001 26.3368 22.9445 25.6924 22.5223C25.3152 22.2084 24.8663 21.9925 24.3856 21.8936C23.905 21.7948 23.4073 21.8161 22.9368 21.9556V18.7778Z" fill="#61C9C4"/>
</g>
<defs>
<clipPath id="clip0_148_5454">
<rect width="20" height="22.6667" fill="white" transform="translate(15.259 17)"/>
</clipPath>
</defs>
</svg>
