<svg width="49" height="63" viewBox="0 0 49 63" fill="none" xmlns="http://www.w3.org/2000/svg">
<path d="M21.7487 1.44338C23.2957 0.550212 25.2017 0.550212 26.7487 1.44338L45.9974 12.5566C47.5444 13.4498 48.4974 15.1004 48.4974 16.8868V39.7157C48.4974 41.1665 47.8673 42.5457 46.7707 43.4954L27.522 60.1653C25.6431 61.7924 22.8543 61.7924 20.9754 60.1653L1.72673 43.4954C0.630089 42.5457 0 41.1665 0 39.7157V16.8868C0 15.1004 0.952995 13.4498 2.5 12.5566L21.7487 1.44338Z" fill="#4896D2"/>
<circle cx="24.2539" cy="28" r="20" fill="white"/>
<g clip-path="url(#clip0_148_5509)">
<path d="M26.6106 25.3474C26.0861 24.875 25.4334 24.5686 24.7348 24.4671C24.0362 24.3656 23.3232 24.4735 22.686 24.7771C22.0487 25.0808 21.5158 25.5666 21.1546 26.1731C20.7934 26.7796 20.6201 27.4796 20.6566 28.1845C20.6932 28.8895 20.938 29.5678 21.36 30.1336C21.782 30.6995 22.3623 31.1276 23.0276 31.3637C23.6929 31.5998 24.4132 31.6333 25.0975 31.4601C25.7818 31.2868 26.3994 30.9146 26.8722 30.3904C27.5058 29.6867 27.8341 28.7603 27.7851 27.8148C27.736 26.8692 27.3136 25.9817 26.6106 25.3474Z" fill="url(#paint0_radial_148_5509)"/>
<path d="M13.9956 14.4182C11.6418 16.1926 9.78808 18.5469 8.61523 21.2512C10.0277 21.5994 14.2566 22.9756 16.1969 28.2141C16.7804 28.024 18.0384 27.2908 18.9112 24.4603C20.0816 20.6706 22.3019 17.0257 25.1811 15.8018C22.3099 12.9611 18.5269 12.2922 13.9956 14.4182Z" fill="url(#paint1_linear_148_5509)"/>
<path d="M37.3098 17.1584L37.3106 17.1574C34.5225 13.7899 30.5439 11.6262 26.2019 11.1161C21.8598 10.606 17.4882 11.7886 13.9955 14.4183C20.2861 11.4668 25.1343 13.9016 28.1032 20.0558C32.8324 20.904 36.0441 18.5509 37.3098 17.1584Z" fill="url(#paint2_linear_148_5509)"/>
<path d="M17.5731 43.6405C20.2865 44.7919 23.252 45.2203 26.1803 44.8839C25.7756 43.4865 24.8529 39.1357 28.4191 34.836C27.9626 34.4257 26.6987 33.7027 23.8112 34.3621C19.9444 35.2432 15.6779 35.1427 13.1784 33.2609C12.1541 37.168 13.4664 40.7789 17.5731 43.6405Z" fill="url(#paint3_linear_148_5509)"/>
<path d="M8.28878 22.078L8.28754 22.0778C6.76545 26.1764 6.88103 30.7038 8.61027 34.7195C10.3395 38.7351 13.5494 41.93 17.5731 43.6405C11.872 39.6679 11.5563 34.2515 15.4011 28.603C13.771 24.083 10.1274 22.4779 8.28878 22.078Z" fill="url(#paint4_linear_148_5509)"/>
<path d="M41.0894 25.931C40.7298 23.0052 39.618 20.2226 37.8625 17.8546C36.8548 18.9038 33.5485 21.8783 28.0421 20.9395C27.915 21.54 27.9209 22.9961 29.9356 25.1673C32.6321 28.0758 34.6783 31.8213 34.2985 34.9269C38.194 33.8605 40.6648 30.9185 41.0894 25.931Z" fill="url(#paint5_linear_148_5509)"/>
<path d="M27.0594 44.7532L27.0599 44.7544C31.3703 44.023 35.2333 41.6589 37.846 38.1534C40.4587 34.6479 41.6203 30.2705 41.0894 25.9308C40.4999 32.8549 35.9674 35.8365 29.1537 35.3308C26.0546 39.0025 26.4864 42.9608 27.0594 44.7532Z" fill="url(#paint6_linear_148_5509)"/>
</g>
<defs>
<radialGradient id="paint0_radial_148_5509" cx="0" cy="0" r="1" gradientUnits="userSpaceOnUse" gradientTransform="translate(23.0754 26.0092) scale(5.02517 5.02518)">
<stop stop-color="#4896D2"/>
<stop offset="1" stop-color="#1A2165"/>
</radialGradient>
<linearGradient id="paint1_linear_148_5509" x1="12.1657" y1="25.5963" x2="20.6172" y2="12.5821" gradientUnits="userSpaceOnUse">
<stop stop-color="#4896D2"/>
<stop offset="1" stop-color="#1A2165"/>
</linearGradient>
<linearGradient id="paint2_linear_148_5509" x1="15.5391" y1="10.5977" x2="36.5337" y2="19.0801" gradientUnits="userSpaceOnUse">
<stop stop-color="#4896D2"/>
<stop offset="1" stop-color="#1A2165"/>
</linearGradient>
<linearGradient id="paint3_linear_148_5509" x1="28.1639" y1="39.6467" x2="12.6682" y2="38.8348" gradientUnits="userSpaceOnUse">
<stop stop-color="#4896D2"/>
<stop offset="1" stop-color="#1A2165"/>
</linearGradient>
<linearGradient id="paint4_linear_148_5509" x1="13.4889" y1="44.225" x2="10.3369" y2="21.7997" gradientUnits="userSpaceOnUse">
<stop stop-color="#4896D2"/>
<stop offset="1" stop-color="#1A2165"/>
</linearGradient>
<linearGradient id="paint5_linear_148_5509" x1="32.3318" y1="18.7667" x2="39.3766" y2="32.5934" gradientUnits="userSpaceOnUse">
<stop stop-color="#4896D2"/>
<stop offset="1" stop-color="#1A2165"/>
</linearGradient>
<linearGradient id="paint6_linear_148_5509" x1="43.6343" y1="29.1877" x2="25.7898" y2="43.1289" gradientUnits="userSpaceOnUse">
<stop stop-color="#4896D2"/>
<stop offset="1" stop-color="#1A2165"/>
</linearGradient>
<clipPath id="clip0_148_5509">
<rect width="34" height="34" fill="white" transform="translate(7.25391 11)"/>
</clipPath>
</defs>
</svg>
