<svg width="50" height="63" viewBox="0 0 50 63" fill="none" xmlns="http://www.w3.org/2000/svg">
<path d="M22.5053 1.44338C24.0523 0.550212 25.9583 0.550212 27.5053 1.44338L46.754 12.5566C48.301 13.4498 49.254 15.1004 49.254 16.8868V39.7157C49.254 41.1665 48.6239 42.5457 47.5273 43.4954L28.2786 60.1653C26.3997 61.7924 23.6109 61.7924 21.732 60.1653L2.48332 43.4954C1.38668 42.5457 0.756592 41.1665 0.756592 39.7157V16.8868C0.756592 15.1004 1.70959 13.4498 3.25659 12.5566L22.5053 1.44338Z" fill="#F4C200"/>
<circle cx="24.7566" cy="28" r="20" fill="white"/>
<g clip-path="url(#clip0_148_5453)">
<path d="M39.6356 24.8601L34.3036 15.7744C34.0591 15.3579 33.5243 15.2166 33.1061 15.4581L29.9105 17.3031L27.0322 16.2443C26.9262 16.2054 26.819 16.1727 26.7109 16.1452C25.9004 15.9392 25.0414 16.0548 24.3084 16.478L19.5504 19.2251C18.4995 19.8318 18.1394 21.1756 18.7462 22.2266C19.3529 23.2775 20.6967 23.6376 21.7477 23.0308L26.9688 20.0164C27.5127 19.7024 28.1827 19.7024 28.7266 20.0164C28.7266 20.0164 39.2458 26.0917 39.2795 26.1125L39.4362 25.9835C39.7698 25.7089 39.8543 25.2327 39.6356 24.8601Z" fill="#F4C200"/>
<path d="M38.2989 27.5727L27.8477 21.5387L22.6266 24.5531C22.0172 24.905 21.3408 25.0847 20.6555 25.0847C20.3119 25.0847 19.9661 25.0395 19.6254 24.9483C18.6049 24.6748 17.752 24.0204 17.2238 23.1054C16.6956 22.1906 16.5553 21.1247 16.8288 20.1042C17.0545 19.2618 17.5405 18.5341 18.2178 18.0085L16.0628 16.7643C15.6331 16.5162 15.0833 16.6728 14.8488 17.11L9.86111 26.4089C9.63675 26.8272 9.78506 27.3482 10.1962 27.5855L10.6531 27.8492L11.4549 26.4603C12.1201 25.3081 13.3604 24.5923 14.6916 24.5923C15.3448 24.5923 15.9901 24.7654 16.5575 25.0931C16.8839 25.2815 17.1751 25.5138 17.4251 25.7817C17.8292 25.6342 18.2609 25.5549 18.7028 25.5549C19.356 25.5549 20.0012 25.7281 20.5686 26.0557C21.4327 26.5545 22.0508 27.3601 22.309 28.3238C22.3374 28.4298 22.3602 28.5364 22.3792 28.6431C22.7386 28.7261 23.0858 28.8622 23.4079 29.0482C24.2719 29.547 24.8901 30.3525 25.1483 31.3163C25.1767 31.4223 25.1995 31.5288 25.2185 31.6356C25.5779 31.7186 25.925 31.8546 26.2471 32.0406C28.0308 33.0705 28.6442 35.3595 27.6144 37.1431L26.5195 39.0396L28.8665 40.3946C29.8123 40.9407 31.0217 40.6166 31.5678 39.6708C32.1139 38.7249 31.7898 37.5155 30.844 36.9694L32.3663 37.8483C33.3121 38.3944 34.5216 38.0703 35.0677 37.1245C35.6138 36.1787 35.2897 34.9692 34.3439 34.4231L35.3588 35.009C36.3046 35.5551 37.5141 35.231 38.0601 34.2852C38.6062 33.3393 38.2821 32.1299 37.3362 31.5838L36.3214 30.9979C37.2672 31.544 38.4767 31.2199 39.0228 30.274C39.5688 29.3282 39.2448 28.1188 38.2989 27.5727Z" fill="#F4C200"/>
<path d="M25.3681 33.5629C24.4223 33.0168 23.2129 33.3409 22.6668 34.2867L23.2527 33.2719C23.7988 32.326 23.4747 31.1166 22.5289 30.5705C21.5831 30.0244 20.3737 30.3485 19.8276 31.2943L20.4135 30.2794C20.9596 29.3336 20.6355 28.1242 19.6897 27.5781C18.7439 27.032 17.5344 27.3561 16.9883 28.3019L16.4024 29.3167C16.9484 28.3709 16.6244 27.1615 15.6785 26.6154C14.7327 26.0693 13.5233 26.3934 12.9772 27.3392L10.8532 31.0181C10.3071 31.9639 10.6312 33.1734 11.577 33.7195C12.5228 34.2655 13.7323 33.9415 14.2783 32.9956C13.7322 33.9414 14.0563 35.1509 15.0021 35.6969C15.948 36.243 17.1574 35.9189 17.7035 34.9731C17.1574 35.9189 17.4815 37.1284 18.4273 37.6744C19.3732 38.2205 20.5826 37.8964 21.1287 36.9506C20.5826 37.8964 20.9067 39.1059 21.8525 39.6519C22.7983 40.198 24.0078 39.8739 24.5539 38.928L26.0919 36.264C26.6381 35.3184 26.314 34.1089 25.3681 33.5629Z" fill="#F4C200"/>
</g>
<defs>
<clipPath id="clip0_148_5453">
<rect width="30" height="30" fill="white" transform="translate(9.75659 13)"/>
</clipPath>
</defs>
</svg>
